<svg width="411" height="328" viewBox="0 0 411 328" fill="none" xmlns="http://www.w3.org/2000/svg">
<circle cx="401.387" cy="62.3017" r="99.5683" fill="url(#paint0_linear_82_495)"/>
<mask id="mask0_82_495" style="mask-type:alpha" maskUnits="userSpaceOnUse" x="114" y="-145" width="482" height="439">
<path fill-rule="evenodd" clip-rule="evenodd" d="M391.533 189.386C460.889 194.827 521.523 143.013 526.964 73.6576C532.405 4.302 480.591 -56.3323 411.236 -61.7729C341.88 -67.2135 281.246 -15.4002 275.805 53.9554C270.365 123.311 322.178 183.945 391.533 189.386ZM392.315 179.415C456.429 184.445 512.464 136.763 517.473 72.9144C522.481 9.0663 474.567 -46.77 410.453 -51.7995C346.338 -56.8289 290.303 -9.14698 285.294 54.7012C280.286 118.549 328.201 174.386 392.315 179.415Z" fill="url(#paint1_linear_82_495)"/>
<circle cx="376.096" cy="75.7424" r="144.987" transform="rotate(5.49627 376.096 75.7424)" stroke="#8371CB"/>
<circle cx="368.091" cy="82.341" r="152.324" transform="rotate(5.49627 368.091 82.341)" stroke="#8371CB"/>
<circle cx="376.193" cy="74.7252" r="218.639" transform="rotate(5.49627 376.193 74.7252)" stroke="#8371CB"/>
<path d="M169.332 223.622C87.7744 126.99 99.9948 -17.4611 196.627 -99.0186" stroke="#8371CB"/>
<circle cx="170.046" cy="223.622" r="6.24722" transform="rotate(5.49627 170.046 223.622)" fill="#C4C4C4"/>
<path d="M433.421 249.416C432.972 248.321 433.497 247.038 434.609 246.563C435.704 246.114 436.986 246.639 437.462 247.75C437.91 248.845 437.386 250.128 436.274 250.604C436.274 250.604 436.274 250.604 436.296 250.598C436.274 250.604 436.252 250.609 436.252 250.609C435.13 251.041 433.874 250.533 433.421 249.416ZM422.919 255.48C421.781 255.846 420.565 255.213 420.177 254.08C419.833 252.937 420.444 251.726 421.598 251.333L421.582 251.36C422.742 250.989 423.958 251.621 424.302 252.765C424.658 253.859 424.085 255.038 423.029 255.454C422.985 255.464 422.963 255.469 422.919 255.48ZM446.222 243.678C445.664 242.609 446.085 241.282 447.159 240.746C448.228 240.188 449.533 240.615 450.091 241.684C450.643 242.731 450.222 244.058 449.175 244.61C449.093 244.653 449.033 244.691 448.967 244.707C447.927 245.095 446.736 244.665 446.222 243.678ZM409.198 259.218C408.039 259.497 406.867 258.761 406.605 257.575C406.349 256.41 407.085 255.239 408.249 254.982C409.435 254.72 410.585 255.461 410.842 256.625C411.099 257.697 410.495 258.744 409.526 259.139C409.417 259.166 409.308 259.192 409.198 259.218ZM458.481 236.844C457.819 235.824 458.121 234.479 459.147 233.839C460.173 233.199 461.495 233.506 462.13 234.51C462.792 235.53 462.463 236.858 461.465 237.515C461.344 237.59 461.218 237.644 461.092 237.697C460.161 238.06 459.041 237.728 458.481 236.844ZM395.215 261.77C394.03 261.94 392.925 261.095 392.782 259.926C392.608 258.719 393.436 257.641 394.621 257.472C395.807 257.302 396.906 258.125 397.059 259.338C397.186 260.348 396.605 261.297 395.696 261.655C395.543 261.692 395.373 261.755 395.215 261.77ZM470.123 228.979C469.384 228.023 469.571 226.683 470.527 225.944C471.483 225.206 472.85 225.409 473.583 226.343C474.3 227.304 474.119 228.666 473.18 229.378C473.026 229.507 472.839 229.598 472.648 229.668C471.739 230.025 470.705 229.765 470.123 228.979ZM381.047 263.072C379.857 263.126 378.829 262.217 378.774 261.027C378.72 259.837 379.651 258.804 380.841 258.749C382.03 258.695 383.064 259.626 383.119 260.816C383.159 261.754 382.579 262.611 381.73 262.931C381.522 263.027 381.281 263.085 381.047 263.072ZM480.999 220.142C480.205 219.245 480.272 217.888 481.141 217.077C482.032 216.262 483.412 216.323 484.205 217.22C485.021 218.111 484.954 219.468 484.063 220.284C483.854 220.473 483.629 220.597 483.399 220.698C482.6 221.029 481.631 220.846 480.999 220.142ZM366.824 263.183C365.613 263.15 364.673 262.127 364.733 260.933C364.771 259.744 365.795 258.804 366.983 258.842L366.989 258.864C368.199 258.897 369.139 259.92 369.079 261.114C369.039 262.003 368.476 262.74 367.693 263.044C367.414 263.134 367.124 263.18 366.824 263.183ZM491.103 210.403C490.232 209.571 490.184 208.218 490.967 207.336C491.798 206.465 493.173 206.412 494.039 207.222C494.926 208.026 494.979 209.401 494.148 210.272C493.911 210.537 493.653 210.715 493.335 210.837C492.618 211.126 491.73 210.992 491.103 210.403ZM352.645 262.035C351.452 261.882 350.616 260.811 350.742 259.601C350.894 258.408 351.988 257.567 353.181 257.719C354.369 257.85 355.21 258.943 355.057 260.136C354.957 260.97 354.422 261.631 353.7 261.897C353.365 262.047 353.005 262.087 352.645 262.035ZM500.308 199.815C499.371 199.092 499.182 197.727 499.921 196.762L499.943 196.757C500.666 195.82 502.032 195.63 502.996 196.37C503.934 197.093 504.123 198.459 503.361 199.428C503.113 199.743 502.8 199.98 502.439 200.113C501.765 200.391 500.937 200.312 500.308 199.815ZM338.614 259.672C337.443 259.421 336.701 258.258 336.93 257.092C337.197 255.895 338.338 255.158 339.509 255.408C340.68 255.659 341.422 256.822 341.171 257.993C341.006 258.749 340.494 259.312 339.837 259.563C339.459 259.723 339.033 259.779 338.614 259.672ZM508.594 188.478C507.585 187.841 507.303 186.475 507.944 185.488C508.581 184.479 509.947 184.197 510.956 184.833C511.965 185.47 512.269 186.831 511.611 187.845C511.356 188.23 510.988 188.527 510.588 188.692C509.926 188.921 509.201 188.887 508.594 188.478ZM324.833 256.137C323.685 255.789 323.025 254.583 323.369 253.413C323.717 252.265 324.929 251.627 326.077 251.975C327.224 252.324 327.863 253.535 327.514 254.683C327.328 255.353 326.822 255.844 326.208 256.084C325.809 256.25 325.307 256.278 324.833 256.137ZM515.865 176.482C514.806 175.927 514.42 174.609 514.975 173.55C515.53 172.491 516.848 172.105 517.902 172.638C518.944 173.22 519.352 174.533 518.797 175.592C518.542 176.07 518.135 176.399 517.67 176.58C517.1 176.81 516.446 176.782 515.865 176.482ZM311.434 251.401C310.309 250.955 309.77 249.673 310.222 248.57C310.673 247.467 311.95 246.905 313.053 247.357C314.156 247.809 314.69 249.069 314.266 250.188C314.031 250.754 313.58 251.186 313.027 251.388C312.502 251.607 311.951 251.624 311.434 251.401ZM522.072 163.909C520.963 163.436 520.451 162.171 520.925 161.062C521.399 159.954 522.685 159.436 523.772 159.915C524.881 160.389 525.393 161.653 524.919 162.762C524.685 163.327 524.245 163.711 523.719 163.93C523.21 164.121 522.632 164.122 522.072 163.909ZM298.465 245.567C297.385 245.017 296.955 243.709 297.488 242.656C298.016 241.581 299.324 241.151 300.399 241.678C301.458 242.234 301.888 243.541 301.355 244.595C301.105 245.094 300.681 245.451 300.199 245.659C299.668 245.856 299.019 245.85 298.465 245.567ZM527.209 150.83C526.078 150.455 525.456 149.216 525.832 148.085C526.208 146.953 527.446 146.332 528.577 146.708C529.709 147.083 530.33 148.322 529.955 149.453C529.741 150.106 529.252 150.571 528.682 150.8C528.212 150.959 527.709 150.988 527.209 150.83ZM286.041 238.63C285.01 237.999 284.711 236.66 285.326 235.656C285.957 234.625 287.296 234.326 288.322 234.936C289.331 235.572 289.652 236.906 289.037 237.91C288.766 238.322 288.403 238.641 287.981 238.811C287.363 239.029 286.638 238.996 286.041 238.63ZM531.188 137.359C530.012 137.087 529.291 135.918 529.564 134.742C529.836 133.566 531.005 132.846 532.181 133.118C533.335 133.396 534.077 134.559 533.804 135.735C533.634 136.47 533.116 137.011 532.481 137.256C532.082 137.422 531.629 137.461 531.188 137.359ZM274.27 230.657C273.289 229.945 273.099 228.579 273.817 227.62C274.535 226.661 275.9 226.472 276.854 227.167C277.835 227.88 278.025 229.246 277.307 230.205C277.047 230.568 276.729 230.783 276.351 230.943C275.672 231.199 274.887 231.11 274.27 230.657ZM533.99 123.615C532.814 123.436 531.994 122.337 532.147 121.144C532.327 119.967 533.425 119.148 534.618 119.3C535.795 119.48 536.615 120.579 536.462 121.772C536.351 122.562 535.789 123.206 535.093 123.489C534.776 123.612 534.399 123.679 533.99 123.615ZM263.211 221.704C262.302 220.904 262.227 219.534 263.031 218.647C263.83 217.738 265.2 217.663 266.088 218.467C266.997 219.266 267.072 220.636 266.268 221.524C266.031 221.789 265.751 221.972 265.433 222.095C264.716 222.383 263.855 222.266 263.211 221.704ZM535.611 109.67C534.417 109.61 533.521 108.576 533.575 107.36C533.635 106.166 534.664 105.248 535.863 105.33C537.062 105.412 537.959 106.445 537.894 107.618C537.848 108.485 537.284 109.221 536.502 109.525C536.25 109.632 535.938 109.684 535.611 109.67ZM252.973 211.835C252.163 210.966 252.175 209.575 253.067 208.759C253.936 207.949 255.305 207.967 256.137 208.831C256.948 209.7 256.935 211.091 256.044 211.907C255.84 212.117 255.599 212.268 255.342 212.353C254.564 212.679 253.617 212.49 252.973 211.835ZM536.027 95.621C534.837 95.6757 533.842 94.7121 533.788 93.5223C533.75 92.3055 534.713 91.3104 535.908 91.2776C537.125 91.2395 538.12 92.2031 538.148 93.3763C538.148 93.3763 538.148 93.3763 538.126 93.3815C538.166 94.3202 537.581 95.155 536.754 95.4694C536.546 95.5657 536.305 95.6235 536.027 95.621ZM243.643 201.124C242.905 200.168 243.042 198.817 243.993 198.056C244.949 197.317 246.301 197.455 247.061 198.406C247.795 199.34 247.662 200.713 246.706 201.452C246.531 201.587 246.328 201.705 246.136 201.774C245.271 202.121 244.242 201.882 243.643 201.124ZM235.254 189.609C234.597 188.61 234.877 187.27 235.87 186.592C236.869 185.935 238.208 186.215 238.865 187.214C239.543 188.207 239.269 189.568 238.27 190.225C238.133 190.327 237.985 190.386 237.837 190.445C236.929 190.802 235.835 190.487 235.254 189.609ZM227.912 177.448C227.332 176.384 227.731 175.062 228.773 174.488C229.815 173.914 231.137 174.313 231.711 175.355C232.291 176.418 231.886 177.718 230.844 178.293C230.762 178.336 230.68 178.379 230.598 178.421C229.607 178.822 228.448 178.429 227.912 177.448Z" fill="url(#paint2_linear_82_495)"/>
<path d="M205.032 171.971C205.03 171.965 205.028 171.959 205.026 171.954C204.902 171.625 204.718 171.14 204.484 170.514C204.016 169.261 203.343 167.445 202.527 165.191C200.895 160.684 198.69 154.426 196.397 147.428C191.807 133.418 186.879 116.484 185.475 104.665C184.069 92.8333 184.197 76.3486 184.681 62.8005C184.922 56.031 185.252 50.0027 185.521 45.6668C185.656 43.4989 185.775 41.7544 185.861 40.552C185.904 39.9538 185.938 39.4899 185.962 39.1748L266.62 43.1661C266.595 43.2974 266.566 43.4506 266.535 43.6251C266.413 44.2967 266.243 45.2838 266.052 46.5493C265.669 49.0802 265.198 52.7257 264.845 57.1902C264.139 66.1174 263.903 78.3286 265.789 91.4562C267.677 104.598 272.052 116.619 275.95 125.349C277.9 129.716 279.732 133.263 281.077 135.719C281.75 136.948 282.301 137.904 282.685 138.553C282.799 138.746 282.898 138.912 282.981 139.05L205.032 171.971Z" stroke="#959595"/>
</mask>
<g mask="url(#mask0_82_495)">
<rect x="533.305" y="306.809" width="516.069" height="554.577" transform="rotate(-178.558 533.305 306.809)" fill="url(#paint3_linear_82_495)"/>
</g>
<defs>
<linearGradient id="paint0_linear_82_495" x1="341.217" y1="-44.4568" x2="426.168" y2="135.915" gradientUnits="userSpaceOnUse">
<stop offset="0.117158" stop-color="#97599A"/>
<stop offset="1" stop-color="#432B7A"/>
</linearGradient>
<linearGradient id="paint1_linear_82_495" x1="295.899" y1="-14.9507" x2="416.52" y2="173.028" gradientUnits="userSpaceOnUse">
<stop stop-color="#07398B"/>
<stop offset="1" stop-color="#1B6490"/>
</linearGradient>
<linearGradient id="paint2_linear_82_495" x1="135.328" y1="190.492" x2="610.381" y2="5.38287" gradientUnits="userSpaceOnUse">
<stop offset="0.239" stop-color="#A728DA"/>
<stop offset="0.6939" stop-color="#548EF7"/>
<stop offset="0.9191" stop-color="#7DC6FD"/>
</linearGradient>
<linearGradient id="paint3_linear_82_495" x1="824.466" y1="642.177" x2="581.219" y2="426" gradientUnits="userSpaceOnUse">
<stop offset="0.03125" stop-color="#B192C2"/>
<stop offset="0.335455" stop-color="#633B7A"/>
<stop offset="1" stop-color="#231050"/>
</linearGradient>
</defs>
</svg>
